<svg clip-rule="evenodd" fill-rule="evenodd" stroke-linejoin="round" stroke-miterlimit="2" viewBox="0 0 440 265" xmlns="http://www.w3.org/2000/svg"><path d="m.179.082h439.292v264.922h-439.292z" fill="none"/><path d="m65.415 222.729c-15.931-9.302-33.5-5.569-32.836 16.565.607 20.241 15.995 21.178 19.749 21.022 23.449-.971 21.798-19.179 21.561-22.03 12.762 15.875 32.665 20.372 43.105 20.154 13.666-.286 41.936-15.533 41.936-15.533l34.75 17.671 46.988-15.304 22.989 13.479 27.362-12.374 24.318 12.11 27.211-12.049 24.768 11.999 22.343-9.272 2.018-54.897c0-24.858-9.314-46.491-76.34-46.086-65.321.395-67.455 24.714-66.715 27.601-9.549-16.205-27.189-27.624-47.31-27.098-29.318.767-42.239 22.626-42.239 22.626s-12.115-22.961-42.079-22.625c-30.257.339-55.817 24.632-54.876 54.876.226 7.255 1.408 13.611 3.297 19.165zm71.585-19.243-21.491-15.142-13.983 15.511 15.512 14.763zm64.312-12.989c7.206 0 13.069 5.862 13.069 13.066 0 7.205-5.863 13.067-13.069 13.067-7.204 0-13.066-5.862-13.066-13.067 0-7.204 5.862-13.066 13.066-13.066z" fill="#fcf6de"/><g fill-rule="nonzero"><path d="m68.725 233.529c3.836 12.666-9.012 28.802-24.594 21.37-2.453-1.17-12.018-7.267-11.567-15.253.532-9.432 7.169 7.846 18.201 8.038 9.086.158 16.72-6.769 17.96-14.155zm44.994 23.126c-40.752-1.339-52.021-46.964-51.626-46.915 11.09 1.394 20.489 9.197 21.288 21.611.166 2.575 16.918 12.721 33.613 13.959 19.296 1.431 35.563-13.235 37.995-20.766 4.429 6.947-.549 33.45-41.27 32.111zm35.366-53.346c14.575-15.239 13.656-40.573 14.986-39.056 9.331 10.649 6.917 23.387 1.645 31.088-1.856 2.711-4.144 5.001-6.559 6.775-.154.112-.243.293-.236.483s.108.365.269.466c3.808 2.428 7.362 6.204 9.672 10.935 2.414 4.945 3.47 10.934 2.036 17.521-.356 1.624.264 3.306 1.588 4.311 8.077 5.953 18.047 9.477 28.826 9.477 25.667 0 47.5-23.837 49.28-49.058 11.375 10.963-8.18 60.727-49.279 58.841-46.484-2.134-40.88-34.105-52.228-51.783zm115.17 51.494c-23.684-.707-19.653-13.648-8.553-40.424 8.525-20.562-9.709-40.3-3.043-46.141 5.132-4.497 14.379 22.741 14.379 36.403 0 13.398-4.717 26.365-12.269 36.305-.173.225-.244.512-.195.791s.213.525.453.678c2.985 1.911 5.616 2.586 10.113 2.586 10.513 0 19.038-6.576 19.038-14.686 0 0 5.071 25.233-19.923 24.488zm51.786-9.494c-10.203 0-18.476-6.575-18.476-14.685 0 0-5.772 23.324 18.476 23.324 25.124 0 18.476-23.324 18.476-23.324 0 8.11-8.273 14.685-18.476 14.685zm51.661 0c-10.203 0-18.476-6.575-18.476-14.685 0 0-8.626 23.324 18.476 23.324 25.759 0 18.476-23.324 18.476-23.324 0 8.11-8.273 14.685-18.476 14.685zm-166.39-66.215c-19.192.058-20.522 20.395-18.238 24.094 1.636-8.989 8.785-17.183 18.238-17.183 9.456 0 17.037 8.574 18.673 17.563 1.827-2.221 2.126-24.537-18.673-24.474zm-71.646 4.748c-3.505-3.06-8.017-5.052-12.672-4.748-17.294 1.132-20.357 20.782-18.253 22.588 3.307-5.927 14.396-19.148 28.368-11.33 23.497 13.148 32.734-9.242 27.715-15.655-1.995 7.845-16.597 16.618-25.158 9.145zm167.659 15.659s2.829-15.462-6.6-15.471c-9.991-.01-6.953 15.595-6.953 15.595zm50.855-.172c1.828-1.193 1.806-15.299-6.309-15.299-8.114 0-8.214 9.789-6.651 15.045zm-226.302-57.01c-22.619-3.8-30.824 3.51-29.162 12.206 1.662 8.695 13.19 18.775 30.037 20.513 27.116 2.798 46.174-24.815-.875-32.719zm75.935-1.735c-13.311.382-23.442 6.693-24.66 12.927-1.218 6.233 6.477 12.389 28.818 12.459 42.402.135 24.335-26.203-4.158-25.386zm177.772 17.578-53.114-6.444s-8.714 4.419-2.203 5.869c6.711 1.495 16.851 3.455 30.134 4.857 13.164 1.389 20.094 1.899 25.76 1.725 11.074-.341-.577-6.007-.577-6.007zm-85.377-8.946c-18.828.175-25.667 3.927-24.353 7.633s10.781 7.365 24.564 7.352c23.546-.022 39.783-15.356-.211-14.985z" fill="#ded8c0"/><path d="m352.263 63.093-38.445 42.32c-6.749 7.234-16.905 37.933 15.249 43.733 2.093.266 55.118 7 70.306 7.371 16.318.398 27.039-14.04 27.136-23.251.337-31.874-39.874-30.531-39.874-30.531l39.482-42.32c6.749-7.232 12.576-35.604-16.35-43.74-.001 0-65.984-6.936-65.984-6.936-14.334-1.5-27.167 8.889-28.671 23.218-3.39 32.291 37.151 30.136 37.151 30.136z" fill="#abfdd7"/><path d="m309.134 137.081c-.966-1.511-1.783-3.137-2.427-4.859-3.412-9.129-1.377-19.4 5.256-26.537.015-.017 1.055-1.108 1.055-1.108 1.532-1.608 2.365-3.757 2.317-5.977-.174-7.941-1.437-65.804-1.437-65.804-.311-14.403-11.189-25.833-25.615-25.512-14.403.316-24.09 12.302-23.777 26.705 0 .001.314 93.733.314 93.733.147 6.742 2.292 13.101 6.551 17.776 4.308 4.728 10.811 7.938 20.099 7.736 7.538-.164 13.128-2.414 17.152-5.78l.14-.121c2.932-2.604 2.492-6.956.372-10.252z" fill="#c6ea84"/><path d="m263.437 98.305.033-.786-.578-63.029c-.042-1.946.211-5.261.57-7.095.629-3.098-.27-5.395-2.593-7.466-4.095-3.556-9.112-5.894-14.541-6.465-14.345-1.513-26.494 9.209-28.002 23.573 0-.002-6.051 57.541-6.051 57.541-.148.816-1.831 8.826-10.785 7.883-2.915-.306-4.94-1.165-6.262-2.423-2.561-2.436-2.402-5.939-2.368-6.41.003-.037 6.107-58.113 6.107-58.113 1.5-14.287-9.122-27.504-23.407-29.003-14.329-1.5-27.452 8.764-28.956 23.072-.001.001-1.171 11.138-1.566 14.938-.208 1.974.147 3.973 1.025 5.76 5.689 11.7 8.332 25.078 6.982 38.971-.81 8.341-2.996 16.331-6.415 23.719-1.183 2.526-1.203 5.472-.043 8.04 7.317 15.952 21.925 31.235 49.626 33.355 51.666 3.954 65.272-37.472 66.971-53.657 0 0 .253-2.405.253-2.405z" fill="#ffc679"/><path d="m103.847 151.951 2.36 2.955c5.124 6.411 22.128 14.613 36.424 4.282 11.745-8.487 13.385-25.526 4.342-36.846l-3.412-4.553c2.364-7.316 6.1-8.641 8.54-27.461 4.686-36.152-24.453-77.484-64.844-81.41-40.39-3.927-76.443 25.741-80.37 66.133v.001c-1.898 19.566 3.931 38.7 16.424 53.878 12.525 15.222 30.215 25.125 49.876 26.504 15.073 1.056 23.272-.754 30.66-3.483zm-4.367-73.407c-5.73-.028-11.505 1.833-16.333 5.691-6.201 4.953-9.539 12.156-9.784 19.508-3.803-.886-7.326-3.478-10-6.753-3.705-4.538-5.891-10.556-4.659-16.159 2.432-11.067 10.308-20.084 21.414-20.084.694 0 1.394.035 2.099.102 9.532.929 14.583 8.126 17.263 17.695z" fill="#ffa7a0"/><path d="m401.625 141.771c-.693 0-71.845-7.443-71.845-7.443-15.174-2.049-17.629-16.345-17.792-16.948-2.522 4.146-2.608 10.908-1.126 14.877 2.64 7.057 12.218 13.362 19.711 14.148 0 0 69.859 7.415 72.994 7.004 27.687-3.625 18.704-25.544 18.08-27.847-1.649 12.447-11.033 16.209-20.022 16.209zm-62.646-84.602 24.339 3.198s3.748-4.003 5.6-5.982c.193-.205.253-.501.156-.765-.097-.265-.335-.452-.614-.484-6.295-.722-30.66-3.519-30.66-3.519-8.395-.882-14.799-9.238-17.135-19.53-.269 1.002-7.419 22.166 18.314 27.082z" fill="#92e3be"/><path d="m296.458 136.093c.135.292.136.628.004.921s-.385.515-.692.608c-18.416 5.585-26.302-13.543-26.524-23.692 0 0-6.384 38.661 22.58 36.723 29.878-1.998 8.434-14.5 11.976-31.676 1.998-9.689 10.702-26.099 9.468-25.472-29.952 15.239-19.6 37.331-16.812 42.588z" fill="#a9cd69"/><path d="m260.856 22.564c-31.944-29.901 27.163 112.291-57.455 117.93-20.859 1.39-35.905-10.508-44.526-21.148-.538-.671-.627-1.597-.228-2.359 15.979-30.828 6.522-71.601-9.99-79.464-4.985-2.374 13.488 45.097 2.431 66.272-11.752 22.508 14.966 47.497 45.826 49.451 35.158 2.226 53.293-17.602 60.83-36.235 4.847-11.984 6.444-91.327 3.112-94.447z" fill="#e7b064"/><path d="m146.159 131.606s-2.828 18.049-19.555 18.248c-10.289.121-17.663-9.372-19.987-12.799-.458-.699-1.344-.98-2.121-.672-7.678 2.997-15.869 4.683-24.234 4.53-18.256-.335-40.714-10.675-52.15-24.573-8.902-10.817-14.701-28.795-15.751-42.481-5.833 11.426 1.609 41.857 12.737 55.38 11.436 13.897 33.724 24.859 55 24.737 9.469-.055 22.815-3.72 24.267-3.327 1.426.386 14.327 11.446 26.663 8.913 17.521-3.597 18.957-19.506 15.131-27.956zm1.891-55.407c-1.046 10.765-8.405 29.695-14.278 39.024-.284.44-.22 1.018.153 1.385 1.238 1.216 3.839 3.772 3.839 3.772 14.646-17.256 10.286-44.181 10.286-44.181zm-42.174 9.042c4.551 3.984.33-38.928-27.902-35.635-29.009 3.384-28.638 34.084-24.29 38.536 6.357-13.983 7.459-26.922 25.963-28.449 18.987-1.566 26.229 25.548 26.229 25.548z" fill="#e38e87"/></g><path d="m56.357 208.456c.082.792-.171 1.582-.697 2.179s-1.278.947-2.073.966c-21.963.428-27.859 13.784-27.706 29.123.139 13.905 12.073 23.777 26.447 23.739 5.516-.015 18.25-2.242 23.999-12.126.274-.482.741-.826 1.283-.943.543-.118 1.109.001 1.559.327 12.113 8.656 25.901 12.593 37.825 12.593 25.847 0 37.714-11.723 41.1-15.737.631-.672 1.685-.709 2.362-.084 10.804 9.823 25.143 15.82 40.856 15.82 13.834 0 26.603-4.647 36.825-12.462.641-.496 1.563-.385 2.068.249.662.822 1.377 1.615 2.143 2.376 5.875 5.84 14.821 9.528 22.616 9.528 7.797 0 16.743-3.689 22.617-9.528.6-.597 1.169-1.213 1.704-1.849.285-.339.706-.534 1.148-.531.443.004.861.204 1.141.547.606.739 1.257 1.453 1.949 2.141 5.875 5.84 14.821 9.53 22.616 9.53 7.797 0 16.743-3.69 22.618-9.53.646-.642 1.256-1.308 1.826-1.994.282-.342.702-.539 1.145-.539.442 0 .862.198 1.144.539.571.686 1.181 1.352 1.827 1.994 5.875 5.84 14.821 9.53 22.617 9.53 20.303 0 30.235-12.746 30.235-26.779v-43.265c0-10.634-3.039-20.706-8.68-29.099-.472-.675-.511-1.561-.101-2.275s1.195-1.127 2.015-1.06c3.401.267 6.298.468 8.445.553 15.453.611 22.447-4.464 27.415-10.36 8.486-10.068 11.62-29.403-.342-43.177-5.454-6.281-19.36-10.297-24.435-10.651-.507-.019-.956-.332-1.149-.8-.194-.469-.096-1.007.25-1.378 6.879-7.414 29.443-31.601 29.443-31.601 8.268-8.86 10.812-21.64 6.568-32.994s-14.545-19.33-26.6-20.595c.003 0-65.982-6.936-65.982-6.936-10.663-1.116-20.646 3.137-27.258 10.58-.328.381-.813.591-1.316.568-.503-.022-.967-.274-1.26-.684-5.962-8.056-15.612-13.19-26.411-12.95-9.782.215-18.44 4.802-24.15 11.853-.471.595-1.328.71-1.939.26-4.413-3.191-9.584-5.32-15.122-5.902-17.6-1.856-32.608 11.178-34.458 28.801 0-.002-6.029 57.334-6.029 57.334s-.568 3.238-4.351 2.862c-3.782-.375-3.335-4.437-3.335-4.437l6.04-56.053c1.834-17.471-11.086-34.729-28.636-35.459-27.987-1.164-34.001 19.667-35.261 27.255-.068.475-.404.867-.863 1.007-.459.139-.956 0-1.276-.357-12.798-14.011-30.614-23.527-50.947-25.503-43.615-4.241-82.545 27.794-86.785 71.411 0 .001-.001.001-.001.002-2.05 21.128 3.926 42.057 17.735 58.178 16.545 19.315 35.255 26.384 50.798 28.353.695.076 1.287.538 1.531 1.193.243.655.176 1.479-.38 1.903-16.096 12.3-15.244 35.82-14.367 44.344zm-20.644 29.202c.565-5.382 3.329-14.117 16.615-14.82 8.606-.455 15.629 7.011 15.629 15.63 0 8.618-7.012 15.492-15.629 15.629-14.229.225-16.991-12.858-16.615-16.439zm42.803-4.474c.204 1.145.74 2.205 1.544 3.046 2.522 2.596 5.286 4.711 8.138 6.532 8.447 5.393 18.03 9.458 28.796 9.458 12.119 0 23.729-4.483 32.698-12.626 6.003-5.451 6.478-15.293 1.027-21.296-5.453-6.006-14.739-6.457-20.744-1.002-3.551 3.225-8.178 5.554-12.981 5.554-10.634 0-19.286-8.653-19.286-19.286 0-10.634 8.652-19.286 19.286-19.286 4.665 0 9.203 2.217 12.708 5.279 6.113 5.335 15.385 4.704 20.722-1.403 5.333-6.109 4.67-15.918-1.439-21.252-.444-.388-.895-.767-1.352-1.137-1.081-.878-2.62-.909-3.735-.077-14.964 11.061-33.292 2.273-40.394-5.003-1.134-1.162-3.025-.854-3.843-.746-33.594 4.443-31.542 36.249-31.324 43.625.134 4.525.607 8.554 1.359 12.155.154.716.529 1.367 1.072 1.859 4.156 3.844 6.608 9.276 7.748 15.606zm257.618-77.263c-2.493-.3-5.023-.028-7.396.794-4.955 1.719-8.666 3.972-10.762 5.432-1.163.83-2.726.824-3.883-.015-1.551-1.097-3.996-2.637-7.197-4.055-1.616-.715-3.432-.839-5.13-.349-2.963.806-6.334 1.295-10.168 1.379-4.962.108-9.178-.511-12.759-1.65-1.697-.577-3.543-.529-5.207.135-7.22 2.892-13.618 7.645-18.352 13.568-.869 1.124-.991 2.654-.312 3.901 4.523 8.508 7.096 18.21 7.096 28.502 0 14.029-4.78 26.963-12.795 37.255-.712.899-.768 2.153-.139 3.113 3.479 4.729 10.131 7.98 15.834 7.98 8.111 0 18.141-6.574 18.141-14.686v-37.772c0-5.495 1.717-10.492 7.876-10.492 6.158 0 7.018 4.997 7.018 10.492v38.082c0 8.109 10.031 14.685 18.14 14.685 8.112 0 18.141-6.576 18.141-14.685v-38.082c0-5.495 1.719-10.5 7.877-10.5 6.157 0 7.019 5.005 7.019 10.5v38.082c0 8.109 10.029 14.685 18.14 14.685 11.733 0 18.141-6.576 18.141-14.685v-43.265c0-13.603-6.554-25.876-17.974-33.105-2.05-1.307-4.373-2.127-6.789-2.395-9.448-1.058-18.455-2.118-24.56-2.849zm-150.389 2.931c-1.645-.341-3.357-.151-4.887.543-5.707 2.677-10.825 6.414-15.08 10.967-.421.455-.588 1.09-.445 1.693 1.878 8.283.018 17.39-5.802 24.057-1.744 1.995-3.718 3.67-5.85 5.015-.62.385-1.001 1.06-1.011 1.79-.002.256-.003.52-.002.763.001.595.317 1.145.831 1.445 2.244 1.329 4.329 3.012 6.174 5.043 6.259 6.895 8.183 16.597 5.953 25.271-.15.565.001 1.167.401 1.593 8.87 9.348 21.409 15.188 35.285 15.188 26.829 0 48.659-21.828 48.659-48.657 0-19.011-10.961-35.51-26.892-43.511-1.742-.855-3.714-1.12-5.62-.756-6.464 1.153-13.67 1.542-21.695.928-3.53-.27-6.866-.734-10.019-1.372zm15.567 25.425c-10.633 0-19.286 8.652-19.286 19.286s8.653 19.286 19.286 19.286c10.636 0 19.288-8.652 19.288-19.286s-8.652-19.286-19.288-19.286zm.145 11.984c4.003 0 7.252 3.25 7.252 7.252 0 4.003-3.249 7.252-7.252 7.252s-7.252-3.249-7.252-7.252c0-4.002 3.249-7.252 7.252-7.252zm-84.869 0c4.002 0 10.707 3.25 10.707 7.252 0 4.003-6.705 7.252-10.707 7.252-4.003 0-7.252-3.249-7.252-7.252 0-4.002 3.249-7.252 7.252-7.252zm146.634-47.015c.563-.304.974-.827 1.136-1.446s.059-1.277-.283-1.818c-2.619-4.229-3.943-8.802-4.584-12.587-.053-.332-.304-.597-.632-.669-.329-.072-.668.065-.854.345-4.663 6.837-10.916 13.344-19.174 18.303-.73.431-1.199 1.196-1.251 2.042-.053.846.318 1.663.989 2.181 2.279 1.785 4.433 3.721 6.441 5.801.385.406.923.632 1.483.621.56-.01 1.09-.256 1.46-.676 4.324-4.817 9.514-8.935 15.269-12.097zm-96.555 4.44c.306-.212.481-.566.463-.937-.018-.372-.226-.708-.55-.889-2.711-1.529-5.209-3.223-7.508-5.048-.287-.232-.672-.305-1.025-.193-.352.112-.625.393-.725.749-.503 1.666-1.179 3.36-2.058 5.071-.719 1.396-.428 3.1.715 4.177.691.656 1.267 1.241 1.728 1.733.784.841 2.099.892 2.946.115 1.9-1.715 3.909-3.312 6.014-4.778zm-80.011-138.577c-36.978-3.596-69.983 23.565-73.578 60.544-1.738 17.913 3.598 35.429 15.036 49.325 11.435 13.898 27.557 22.993 45.508 24.251 16.009 1.123 23.581-1.227 31.317-4.381.535-.218 1.149-.058 1.509.393 1.379 1.726 4.618 5.782 4.618 5.782 3.925 4.912 16.97 11.038 27.923 3.123 8.894-6.427 9.973-19.35 3.125-27.922 0 0-3.909-4.894-5.217-6.532-.25-.313-.272-.751-.054-1.088 5.729-8.896 9.303-19.086 10.356-29.919 3.591-36.977-23.566-69.983-60.543-73.576zm334.704 117.507c-1.071 10.207-9.284 17.989-21.836 17.683-15.356-.374-69.744-7.332-69.744-7.332-7.493-.786-13.896-5.745-16.534-12.802-2.638-7.058-1.057-15 4.083-20.509 0 0 39.923-42.794 46.945-50.32.198-.213.259-.519.157-.791s-.349-.463-.637-.493c-5.62-.592-24.816-2.611-24.816-2.611-10.912-1.145-18.828-10.922-17.681-21.834 1.146-10.914 10.921-18.825 21.836-17.683l65.985 6.937c7.493.786 13.896 5.744 16.534 12.802 2.638 7.057 1.057 15.001-4.083 20.509 0 0-40.115 42.999-46.994 50.373-.189.203-.247.494-.15.753.096.259.331.441.607.47 6.017.633 28.646 3.014 28.646 3.014 10.913 1.145 18.83 10.922 17.682 21.834zm-163.072-34.962-.253 2.406c-1.529 14.566-14.851 51.664-61.348 48.106-24.776-1.897-37.901-15.476-44.432-29.716-.412-.912-.405-1.959.019-2.866 3.709-8.014 6.083-16.681 6.962-25.73 1.464-15.076-1.405-29.593-7.59-42.313-.362-.736-.508-1.56-.422-2.375.395-3.799 1.565-14.931 1.565-14.931 1.147-10.911 11.198-18.681 22.122-17.537 10.913 1.145 19.016 11.253 17.871 22.166l-6.109 58.119s-1.34 14.032 14.166 15.664c15.506 1.631 17.605-13.26 17.605-13.26l6.068-57.701c1.145-10.912 10.266-19.187 21.164-18.036 4.149.435 7.972 2.245 11.054 4.921.674.602.976 1.518.79 2.402-.454 2.287-.673 4.659-.621 7.088zm46.647 42.783c.468.721.339 1.675-.304 2.246-3.109 2.601-7.472 4.206-13.297 4.333-14.138.308-20.07-9.05-20.296-19.43l-2.048-93.788c-.238-10.97 8.46-20.056 19.43-20.296 10.986-.245 20.06 8.46 20.296 19.43 0 0 1.264 57.863 1.437 65.804.013.576-.203 1.133-.6 1.55-.482.505-1.067 1.12-1.067 1.12-8.269 8.863-10.812 21.64-6.568 32.993.8 2.14 1.815 4.161 3.017 6.038zm-225.123-32.694c.097.572-.046 1.16-.395 1.624s-.873.765-1.45.832c-14.752 1.39-28.594-15.89-25.338-30.704 3.077-13.998 13.441-24.968 27.489-24.968.892 0 1.79.045 2.695.131 14.424 1.402 21.56 13.568 24.225 29.312.085.51-.103 1.026-.495 1.362s-.931.443-1.421.282c-6.023-1.823-12.805-.745-18.093 3.48-5.788 4.623-8.3 11.821-7.217 18.649zm12.814-35.356c.079.231.057.484-.062.697-.118.213-.322.366-.559.42-4.436 1.074-8.721 3.102-12.525 6.142-4.325 3.454-7.513 7.803-9.51 12.571-.108.268-.346.463-.631.515-.284.052-.576-.044-.773-.256-3.122-3.999-6.366-13.661 1.903-20.931 9.5-8.353 20.15-3.576 22.157.842zm229.517-10.537c-.138-.092-.314-.1-.459-.02-.145.079-.234.232-.23.397.071 3.311.339 15.593.471 21.62.012.565.364 1.067.891 1.271s1.125.07 1.515-.339c6.346-6.659 12.718-13.346 15.103-15.849.2-.21.272-.511.19-.789s-.307-.491-.589-.558c-3.468-.819-12.576-3.132-16.892-5.733z"/></svg>